<?xml version="1.0" encoding="utf-8"?>
<!-- Generator: Adobe Illustrator 22.1.0, SVG Export Plug-In . SVG Version: 6.00 Build 0)  -->
<svg version="1.1" id="레이어_1" xmlns="http://www.w3.org/2000/svg" xmlns:xlink="http://www.w3.org/1999/xlink" x="0px"
	 y="0px" viewBox="0 0 242 172" style="enable-background:new 0 0 242 172;" xml:space="preserve">
<style type="text/css">
	.st0{fill:#FFFFFF;}
</style>
<path class="st0" d="M177.7,53V10.4c-14.8,7.8-25.3,22-27.5,42.6h-14.9v6.6h14.1v97.8h-28.2V5.5H69.7v6.7H93v61.5
	c-1.1-2.4-2.2-4.8-3.6-6.9c-7-11.5-17.4-17.9-27.5-18l0,0l0,0l0,0c-27,0-48,26.9-48,59.6v0.2c0.1,32.7,21.1,59.5,48,59.6l0,0l0,0
	l0,0c10.1,0,20.5-6.5,27.5-18c1.3-2.2,2.5-4.5,3.6-6.9v20.8h109.7v-6.7h-25V59.6h25.1l-0.1-6.6C202.7,53,177.7,53,177.7,53z M93,114
	c-1.7,27.3-15.7,46.8-32.5,46.8l0,0c-24,0-22.4-28.8-22.4-52.3v-0.2c0-23.5-1.6-52.3,22.4-52.3l0,0c16.9,0,30.8,19.5,32.5,46.9V114z
	"/>
<circle class="st0" cx="213.4" cy="19.9" r="14.4"/>
</svg>
